<?xml version="1.0" standalone="no"?>
<!DOCTYPE svg PUBLIC "-//W3C//DTD SVG 20010904//EN"
 "http://www.w3.org/TR/2001/REC-SVG-20010904/DTD/svg10.dtd">
<svg version="1.0" xmlns="http://www.w3.org/2000/svg"
 width="512.000000pt" height="512.000000pt" viewBox="0 0 512.000000 512.000000"
 preserveAspectRatio="xMidYMid meet">
<metadata>
Created by potrace 1.14, written by Peter Selinger 2001-2017
</metadata>
<g transform="translate(0.000000,512.000000) scale(0.100000,-0.100000)"
fill="#000000" stroke="none">
<path d="M1755 5096 c8 -12 12 -26 8 -30 -4 -3 -13 4 -21 16 -9 16 -12 17 -7
4 4 -15 3 -17 -8 -7 -12 9 -14 7 -13 -10 1 -13 -6 -23 -15 -24 -18 -3 -59 -40
-59 -53 0 -17 -30 -8 -36 10 -3 10 -10 18 -16 18 -6 0 -6 -6 2 -15 7 -8 9 -22
6 -31 -4 -11 -2 -15 8 -11 10 4 14 0 13 -13 -1 -14 -5 -16 -13 -9 -8 7 -14 6
-18 -3 -3 -7 -4 3 -1 22 8 52 -11 25 -29 -40 -8 -30 -15 -51 -15 -45 -1 5 -6
4 -12 -2 -6 -6 -17 -9 -25 -6 -8 3 -16 -7 -23 -29 -5 -18 -10 -27 -10 -19 -1
12 -3 12 -18 0 -31 -24 -63 -40 -72 -34 -5 3 -4 -6 2 -19 7 -13 16 -22 22 -19
5 3 5 1 -1 -6 -13 -14 -41 -17 -69 -6 l-20 8 20 -16 c11 -9 29 -17 39 -17 24
0 18 -7 -9 -12 -11 -1 -23 -7 -26 -11 -3 -4 -15 -9 -27 -10 -21 -1 -25 -16 -7
-29 6 -4 -5 -6 -22 -4 -27 3 -33 0 -33 -15 0 -11 -4 -19 -10 -19 -5 0 -10 5
-10 12 0 9 -3 9 -12 0 -9 -9 -9 -15 1 -24 11 -11 12 -10 6 1 -5 9 -4 12 3 7 6
-4 8 -14 5 -22 -4 -11 -9 -12 -16 -5 -16 16 -25 13 -38 -11 -10 -18 -9 -20 7
-14 18 6 18 5 2 -7 -10 -8 -15 -17 -11 -20 3 -4 1 -7 -5 -7 -7 0 -12 5 -12 12
0 31 -13 -7 -15 -44 -1 -24 -5 -42 -9 -40 -3 1 -12 2 -18 2 -10 0 -10 2 0 9
11 7 10 10 -3 15 -20 7 -35 0 -35 -17 0 -7 4 -6 10 3 8 13 10 13 10 -1 0 -9
-7 -19 -15 -23 -9 -3 -12 -13 -9 -23 3 -10 -2 -6 -11 10 -8 15 -21 27 -28 27
-9 0 -9 -2 -1 -8 7 -4 13 -16 14 -27 4 -39 1 -47 -20 -40 -17 5 -20 2 -20 -20
0 -15 -4 -24 -10 -20 -5 3 -10 2 -10 -3 0 -6 -10 -8 -22 -6 -17 3 -16 1 5 -7
15 -6 27 -15 27 -20 0 -4 -7 -5 -17 -2 -11 4 -14 3 -9 -5 4 -7 2 -12 -3 -12
-6 0 -11 8 -11 18 0 13 -2 14 -9 3 -5 -7 -14 -10 -20 -7 -19 12 -33 -4 -19
-22 9 -11 9 -13 1 -9 -7 5 -18 -3 -26 -20 -14 -26 -15 -26 -22 -4 l-7 22 -20
-26 c-11 -14 -23 -23 -28 -20 -5 3 -12 0 -16 -6 -4 -8 -3 -9 4 -5 13 8 36 -40
28 -58 -2 -6 -5 -4 -5 6 -1 18 -33 18 -39 0 -2 -7 2 -10 10 -7 9 4 15 0 15 -9
0 -11 -6 -12 -24 -5 -15 5 -22 5 -18 0 5 -9 -32 -27 -48 -23 -5 1 -6 -2 -2 -8
3 -5 0 -7 -8 -4 -8 3 -17 -1 -20 -9 -4 -11 0 -14 16 -11 15 3 13 0 -8 -10 -16
-9 -24 -15 -17 -16 15 0 49 -30 35 -30 -5 0 -14 5 -19 10 -6 6 -18 8 -27 4
-13 -5 -14 -9 -4 -24 13 -22 8 -29 -21 -35 -16 -3 -20 1 -17 16 3 16 1 17 -16
9 -10 -6 -19 -13 -19 -16 0 -3 6 -2 13 2 9 6 9 5 0 -7 -8 -9 -9 -20 -3 -29 11
-18 13 -40 2 -24 -14 21 -50 35 -58 22 -4 -6 -3 -9 2 -6 5 3 16 -1 23 -10 13
-14 12 -15 -7 -10 -12 4 -25 2 -28 -3 -3 -5 -9 -7 -13 -5 -4 3 -13 1 -21 -5
-11 -6 -12 -9 -2 -9 7 0 10 -4 7 -10 -3 -5 -1 -10 5 -10 6 0 8 -5 5 -11 -4 -6
-14 -8 -22 -5 -8 3 -12 2 -8 -3 3 -5 -1 -12 -7 -14 -10 -4 -10 -7 0 -15 11 -7
11 -10 -2 -15 -8 -3 -18 -1 -22 5 -5 7 -2 8 6 3 9 -5 11 -4 6 4 -9 15 -29 3
-23 -13 3 -7 1 -19 -3 -27 -7 -11 -10 -10 -16 4 -3 9 -10 17 -15 17 -5 0 -2
-12 8 -27 17 -27 17 -27 0 -14 -10 8 -20 11 -24 7 -3 -3 -2 -6 4 -6 5 0 10 -7
10 -16 0 -19 -40 -36 -64 -27 -10 4 -14 2 -10 -4 8 -13 -28 -24 -40 -12 -4 4
-8 -11 -8 -34 0 -30 -4 -41 -13 -39 -8 1 -11 -2 -8 -7 10 -16 -11 -22 -24 -6
-13 15 -44 9 -34 -7 4 -6 9 -6 14 2 6 9 10 7 14 -8 4 -12 13 -19 21 -16 7 3
16 0 21 -7 4 -8 3 -10 -5 -5 -7 4 -15 -2 -20 -16 -8 -19 -10 -20 -10 -4 -1 13
-6 16 -17 12 -14 -5 -15 -4 -4 9 11 13 10 14 -4 9 -9 -3 -16 -12 -16 -19 0 -7
-6 -15 -12 -18 -10 -3 -10 -8 2 -23 11 -15 11 -16 0 -6 -8 6 -23 12 -34 12
-14 0 -17 -3 -9 -8 9 -6 5 -13 -12 -26 -14 -10 -23 -22 -20 -26 2 -4 -4 -15
-14 -24 -13 -12 -21 -14 -26 -6 -7 12 -25 4 -25 -11 0 -6 4 -8 8 -5 4 2 14 1
22 -5 10 -5 11 -9 3 -9 -7 0 -10 -7 -7 -15 4 -8 1 -15 -5 -15 -6 0 -11 8 -11
18 -1 16 -1 16 -11 -1 -6 -9 -15 -14 -21 -11 -6 4 -8 2 -4 -4 3 -6 -2 -13 -11
-15 -17 -4 -17 -5 0 -6 17 -1 17 -2 3 -17 -14 -14 -16 -186 -16 -1685 l0
-1669 2560 0 2560 0 0 2560 0 2560 -1690 0 -1690 0 15 -24z m-235 -290 c0 -2
-7 -7 -16 -10 -8 -3 -12 -2 -9 4 6 10 25 14 25 6z m-107 -31 c-3 -9 -8 -14
-10 -11 -3 3 -2 9 2 15 9 16 15 13 8 -4z m-116 -160 c0 -8 -4 -12 -9 -9 -4 3
-8 9 -8 15 0 5 4 9 8 9 5 0 9 -7 9 -15z m-347 -340 c0 -12 -19 -12 -23 0 -4 9
-1 12 9 8 7 -3 14 -7 14 -8z m-92 -75 c3 -7 0 -10 -6 -6 -6 3 -12 0 -15 -6 -3
-7 -4 -3 -4 10 1 23 18 25 25 2z m-113 -110 c3 -5 1 -10 -4 -10 -6 0 -11 5
-11 10 0 6 2 10 4 10 3 0 8 -4 11 -10z m2383 -175 c114 -22 203 -55 198 -74
-3 -9 -24 -112 -47 -229 -41 -202 -44 -213 -63 -207 -108 36 -169 45 -281 46
-137 0 -208 -15 -297 -63 -162 -86 -276 -278 -323 -543 -38 -216 -29 -556 21
-755 76 -303 269 -482 492 -454 l52 6 0 324 0 324 -120 0 -120 0 0 220 0 220
365 0 365 0 -2 -727 -3 -728 -77 -22 c-237 -67 -537 -85 -738 -43 -252 52
-449 185 -586 395 -90 138 -146 283 -190 490 -22 101 -27 155 -31 346 -4 145
-1 263 6 330 52 454 234 792 531 987 141 94 288 147 465 171 88 12 283 5 383
-14z m-2558 -15 c0 -5 -4 -10 -10 -10 -5 0 -10 5 -10 10 0 6 5 10 10 10 6 0
10 -4 10 -10z m-213 -209 c-1 -11 -6 -17 -14 -14 -7 3 -19 0 -26 -6 -10 -8
-14 -7 -14 4 0 8 4 12 9 9 4 -3 8 0 8 6 0 7 7 10 15 6 8 -3 15 -1 15 4 0 6 2
10 4 10 3 0 4 -9 3 -19z m-57 -61 c-13 -12 -18 -20 -10 -20 7 0 11 -3 7 -6 -3
-3 -11 -3 -17 1 -12 8 15 45 33 45 6 0 0 -9 -13 -20z"/>
<path d="M1664 5073 c0 -13 7 -19 22 -19 16 0 20 4 15 21 -5 18 -6 18 -9 2 -3
-17 -5 -17 -16 -2 -11 15 -12 15 -12 -2z"/>
<path d="M1539 4948 c-5 -18 -6 -38 -1 -34 7 8 12 36 6 36 -2 0 -4 -1 -5 -2z"/>
<path d="M1496 4894 c-3 -8 -2 -13 3 -9 5 3 11 0 13 -7 3 -8 7 -6 11 4 3 9 0
19 -8 22 -7 2 -16 -2 -19 -10z"/>
<path d="M1452 4853 c5 -7 14 -10 19 -7 16 10 9 23 -10 21 -15 -1 -17 -4 -9
-14z"/>
<path d="M1434 4843 c3 -6 -2 -16 -11 -22 -10 -6 -13 -10 -8 -11 6 0 17 5 25
10 13 8 13 11 1 22 -9 8 -12 9 -7 1z"/>
<path d="M1305 4711 c3 -5 -1 -12 -7 -14 -7 -3 -3 -6 10 -6 25 -1 30 14 6 23
-8 3 -13 2 -9 -3z"/>
<path d="M1140 4559 c0 -5 5 -7 10 -4 6 3 10 8 10 11 0 2 -4 4 -10 4 -5 0 -10
-5 -10 -11z"/>
<path d="M1047 4469 c7 -7 15 -10 18 -7 3 3 -2 9 -12 12 -14 6 -15 5 -6 -5z"/>
<path d="M1025 4420 c3 -5 8 -10 11 -10 2 0 4 5 4 10 0 6 -5 10 -11 10 -5 0
-7 -4 -4 -10z"/>
<path d="M1030 4389 c0 -5 5 -7 10 -4 6 3 10 8 10 11 0 2 -4 4 -10 4 -5 0 -10
-5 -10 -11z"/>
<path d="M980 4369 c0 -5 5 -7 10 -4 6 3 10 8 10 11 0 2 -4 4 -10 4 -5 0 -10
-5 -10 -11z"/>
<path d="M875 4259 c-4 -6 -5 -12 -2 -15 2 -3 7 2 10 11 7 17 1 20 -8 4z"/>
<path d="M767 4176 c-4 -10 -1 -13 9 -9 7 3 14 9 14 14 0 14 -17 10 -23 -5z"/>
<path d="M690 4120 c0 -5 7 -7 15 -4 8 4 15 8 15 10 0 2 -7 4 -15 4 -8 0 -15
-4 -15 -10z"/>
<path d="M640 3989 c0 -5 5 -7 10 -4 6 3 10 8 10 11 0 2 -4 4 -10 4 -5 0 -10
-5 -10 -11z"/>
<path d="M350 3750 c-8 -5 0 -7 18 -7 17 1 29 4 26 6 -8 9 -31 9 -44 1z"/>
<path d="M40 3469 c0 -5 5 -7 10 -4 6 4 18 1 26 -6 12 -10 13 -9 8 5 -7 18
-44 22 -44 5z"/>
</g>
</svg>
